<svg xmlns="http://www.w3.org/2000/svg" xmlns:xlink="http://www.w3.org/1999/xlink" xmlns:lucid="lucid" width="3988.9" height="2700.6"><g transform="translate(-8186.516422766465 550.8748434597103)" lucid:page-tab-id="0_0"><path d="M-3500-1500h16000v4500H-3500z" fill="#f2f3f5"/><path d="M8187.52-543.88a6 6 0 0 1 6-6h3974.9a6 6 0 0 1 6 6v2686.6a6 6 0 0 1-6 6H8193.5a6 6 0 0 1-6-6z" stroke="#000" stroke-width="2" fill="#fff"/><path d="M8398.63 1539.28a6 6 0 0 1 6-6h696.5a6 6 0 0 1 6 6v508.3a6 6 0 0 1-6 6h-696.5a6 6 0 0 1-6-6z" stroke="#000" stroke-width="2" fill="#fff"/><use xlink:href="#a" transform="matrix(1,0,0,1,8434.059354780504,1559.2992145753906) translate(86.55208333333331 271.88020833333337)"/><path d="M9826.7 1539.28a6 6 0 0 1 6-6h696.52a6 6 0 0 1 6 6v508.3a6 6 0 0 1-6 6h-696.5a6 6 0 0 1-6-6z" stroke="#000" stroke-width="2" fill="#fff"/><use xlink:href="#b" transform="matrix(1,0,0,1,9862.13823547609,1559.2992145753906) translate(183.76562499999997 271.88020833333337)"/><path d="M11254.8 1539.28a6 6 0 0 1 6-6h696.5a6 6 0 0 1 6 6v508.3a6 6 0 0 1-6 6h-696.5a6 6 0 0 1-6-6z" stroke="#000" stroke-width="2" fill="#fff"/><use xlink:href="#c" transform="matrix(1,0,0,1,11290.217116171676,1559.2992145753906) translate(142.93229166666666 271.88020833333337)"/><path d="M8398.63 553.54a6 6 0 0 1 6-6h3552.67a6 6 0 0 1 6 6v549.64a6 6 0 0 1-6 6H8404.63a6 6 0 0 1-6-6z" stroke="#000" stroke-width="2" fill="#ffdda6"/><use xlink:href="#d" transform="matrix(1,0,0,1,8576.867242850061,575.6254798551752) translate(1077.1041666666667 214.02083333333334)"/><use xlink:href="#e" transform="matrix(1,0,0,1,8576.867242850061,575.6254798551752) translate(1345.6458333333335 214.02083333333334)"/><use xlink:href="#f" transform="matrix(1,0,0,1,8576.867242850061,575.6254798551752) translate(1700.59375 214.02083333333334)"/><use xlink:href="#g" transform="matrix(1,0,0,1,8576.867242850061,575.6254798551752) translate(1450.1770833333333 368.89583333333337)"/><path d="M9826.7-390.87a6 6 0 0 1 6-6h696.52a6 6 0 0 1 6 6v508.3a6 6 0 0 1-6 6h-696.5a6 6 0 0 1-6-6z" stroke="#000" stroke-width="2" fill="#fff"/><use xlink:href="#h" transform="matrix(1,0,0,1,9862.13823547609,-370.8496449387591) translate(216.890625 271.88020833333337)"/><path d="M10180.97 149.3v394.74" stroke="#3a414a" stroke-width="5" stroke-linejoin="round" fill="none"/><path d="M10180.97 132.54l4.63 14.27h-9.27z" stroke="#3a414a" stroke-width="5" fill="#3a414a"/><path d="M10183.44 546.54h-4.95v-2.56h4.94z" stroke="#3a414a" stroke-width=".05" fill="#3a414a"/><path d="M10180.97 1135.05v394.73" stroke="#3a414a" stroke-width="5" stroke-linejoin="round" fill="none"/><path d="M10180.97 1118.28l4.63 14.27h-9.27z" stroke="#3a414a" stroke-width="5" fill="#3a414a"/><path d="M10183.44 1532.28h-4.95v-2.56h4.94z" stroke="#3a414a" stroke-width=".05" fill="#3a414a"/><path d="M10187.32 1133.95l.03.05 1.28 2.23 1.47 2.3 1.67 2.4 1.9 2.53 2.2 2.64 2.52 2.8 2.9 2.95 3.36 3.17 3.94 3.4 4.65 3.67 5.52 4 6.63 4.4 8.05 4.86 9.94 5.46 12.46 6.17 15.98 7.1 21 8.27 28.52 9.9 40.56 12.18 61.7 15.73 106.4 22.36 836.36 139.74 61.7 15.73 40.57 12.2 28.53 9.9 21 8.28 15.97 7.1 12.47 6.17 9.94 5.45 8.05 4.88 6.64 4.4 5.52 4 4.65 3.67 3.95 3.4 3.37 3.16 2.9 2.98 2.52 2.8 2.2 2.63 1.9 2.52 1.67 2.4 1.47 2.32 1.3 2.22 1.12 2.16.98 2.1.86 2.05.75 2 .63 1.98.55 1.95.45 1.93.36 1.93.28 1.9.2 1.94.1 1.38" stroke="#3a414a" stroke-width="5" stroke-linejoin="round" fill="none"/><path d="M10183.06 1118l8.16 12.6-8.96 2.38z" stroke="#3a414a" stroke-width="5" fill="#3a414a"/><path d="M11611.52 1532.28h-4.95v-2.56h4.95z" stroke="#3a414a" stroke-width=".05" fill="#3a414a"/><path d="M10174.6 1133.95l-.02.05-1.28 2.23-1.47 2.3-1.67 2.4-1.9 2.53-2.2 2.64-2.5 2.8-2.92 2.95-3.37 3.17-3.94 3.4-4.65 3.67-5.52 4-6.63 4.4-8.05 4.86-9.94 5.46-12.47 6.17-15.98 7.1-21 8.27-28.53 9.9-40.56 12.18-61.7 15.73-106.4 22.36-836.35 139.74-61.7 15.73-40.57 12.2-28.53 9.9-21 8.28-15.97 7.1-12.47 6.17-9.92 5.45-8.06 4.88-6.63 4.4-5.53 4-4.65 3.67-3.94 3.4-3.37 3.16-2.9 2.98-2.5 2.8-2.2 2.63-1.9 2.52-1.68 2.4-1.46 2.32-1.3 2.22-1.12 2.16-1 2.1-.85 2.05-.76 2-.64 1.98-.54 1.95-.46 1.93-.36 1.93-.3 1.9-.2 1.94-.08 1.38" stroke="#3a414a" stroke-width="5" stroke-linejoin="round" fill="none"/><path d="M10178.88 1118l.8 14.98-8.97-2.4z" stroke="#3a414a" stroke-width="5" fill="#3a414a"/><path d="M8755.36 1529.72v2.56h-4.95v-2.56z" stroke="#3a414a" stroke-width=".05" fill="#3a414a"/><defs><path d="M458 0L52-1490h194c108 439 233 855 324 1313 92-459 221-873 331-1313h216c110 438 234 854 330 1307 92-455 216-869 323-1307h196L1558 0h-221l-256-944c-26-95-50-200-73-331-22 122-44 223-73 331L680 0H458" id="i"/><path d="M158 0v-1118h180V0H158zm91-1301c-68 0-125-53-125-119s57-119 125-119c69 0 126 53 126 119s-57 119-126 119" id="j"/><path d="M338-670V0H158v-1118h173l1 207c72-158 192-221 342-221 226 0 378 139 378 422V0H872v-695c0-172-96-275-252-275-161 0-282 109-282 300" id="k"/><path d="M577 24c-279 0-473-224-473-580 0-354 195-576 474-576 218 0 287 134 324 193h14v-551h180V0H922v-173h-20C865-111 790 24 577 24zm27-161c203 0 314-172 314-421 0-247-108-413-314-413-212 0-317 181-317 413 0 235 108 421 317 421" id="l"/><path d="M613 24c-304 0-509-231-509-576 0-350 205-580 509-580 305 0 511 230 511 580 0 345-206 576-511 576zm0-161c226 0 329-195 329-415 0-222-103-419-329-419-223 0-326 196-326 419 0 220 103 415 326 415" id="m"/><path d="M409 0L70-1118h191c89 329 165 560 243 925 75-353 154-601 240-925h192c85 325 161 564 235 922 77-354 157-598 244-922h191L1267 0h-179c-86-307-176-590-250-913C763-588 675-308 588 0H409" id="n"/><path d="M538 24C308 24 148-78 108-271l171-41c32 123 123 178 257 178 156 0 256-77 256-169 0-77-54-128-164-154l-186-44c-203-48-300-148-300-305 0-192 176-326 414-326 230 0 351 112 402 269l-163 42c-31-80-94-158-238-158-133 0-233 69-233 162 0 83 57 129 188 160l169 40c203 48 298 149 298 302 0 196-179 339-441 339" id="o"/><g id="a"><use transform="matrix(0.052083333333333336,0,0,0.052083333333333336,0,0)" xlink:href="#i"/><use transform="matrix(0.052083333333333336,0,0,0.052083333333333336,105.10416666666667,0)" xlink:href="#j"/><use transform="matrix(0.052083333333333336,0,0,0.052083333333333336,130.9375,0)" xlink:href="#k"/><use transform="matrix(0.052083333333333336,0,0,0.052083333333333336,193.95833333333334,0)" xlink:href="#l"/><use transform="matrix(0.052083333333333336,0,0,0.052083333333333336,259.27083333333337,0)" xlink:href="#m"/><use transform="matrix(0.052083333333333336,0,0,0.052083333333333336,321.30208333333337,0)" xlink:href="#n"/><use transform="matrix(0.052083333333333336,0,0,0.052083333333333336,408.59375000000006,0)" xlink:href="#o"/></g><path d="M180 0v-1490h190v1322h690V0H180" id="p"/><path d="M537 14c-226 0-379-139-379-422v-710h180v695c0 172 97 275 253 275 160 0 281-109 281-300v-670h181V0H879v-209C806-46 684 14 537 14" id="q"/><path d="M65 0l393-574-370-544h210c88 136 192 297 267 435 67-142 176-302 264-435h206L661-564 1053 0H844c-94-144-206-310-287-458C484-308 366-142 273 0H65" id="r"/><g id="b"><use transform="matrix(0.052083333333333336,0,0,0.052083333333333336,0,0)" xlink:href="#p"/><use transform="matrix(0.052083333333333336,0,0,0.052083333333333336,60.3125,0)" xlink:href="#j"/><use transform="matrix(0.052083333333333336,0,0,0.052083333333333336,86.14583333333334,0)" xlink:href="#k"/><use transform="matrix(0.052083333333333336,0,0,0.052083333333333336,149.16666666666669,0)" xlink:href="#q"/><use transform="matrix(0.052083333333333336,0,0,0.052083333333333336,212.23958333333337,0)" xlink:href="#r"/></g><path d="M158 0v-1118h175l1 205c55-151 181-225 313-225 147 0 245 90 285 228 53-141 190-228 352-228 194 0 352 125 352 384V0h-181v-749c0-161-105-225-225-225-151 0-243 103-243 244V0H807v-767c0-124-93-207-219-207-131 0-250 92-250 270V0H158" id="s"/><path d="M471 26C259 26 90-98 90-318c0-256 228-303 435-329 202-27 287-16 287-108 0-139-79-219-234-219-161 0-248 86-283 164l-173-57c86-203 278-265 451-265 150 0 419 46 419 395V0H815v-152h-12C765-73 660 26 471 26zm31-159c199 0 310-134 310-271v-155c-30 35-226 55-295 64-131 17-246 59-246 186 0 116 97 176 231 176" id="t"/><path d="M613 24c-304 0-509-231-509-576 0-350 205-580 509-580 216 0 392 114 453 309l-173 49c-33-115-133-197-280-197-223 0-326 196-326 419 0 220 103 415 326 415 150 0 252-85 285-206l172 49C1010-95 832 24 613 24" id="u"/><path d="M784 20c-382 0-662-292-662-764 0-473 280-766 662-766s660 293 660 766c0 472-278 764-660 764zm0-176c266 0 475-207 475-588 0-383-209-590-475-590-268 0-477 208-477 590 0 380 209 588 477 588" id="v"/><g id="c"><use transform="matrix(0.052083333333333336,0,0,0.052083333333333336,0,0)" xlink:href="#s"/><use transform="matrix(0.052083333333333336,0,0,0.052083333333333336,93.4375,0)" xlink:href="#t"/><use transform="matrix(0.052083333333333336,0,0,0.052083333333333336,153.33333333333334,0)" xlink:href="#u"/><use transform="matrix(0.052083333333333336,0,0,0.052083333333333336,214.27083333333334,0)" xlink:href="#v"/><use transform="matrix(0.052083333333333336,0,0,0.052083333333333336,295.83333333333337,0)" xlink:href="#o"/></g><path d="M545 20c-263 0-445-160-445-446v-80h190v80c0 182 102 279 255 279 152 0 254-97 254-279v-1064h190v1064c0 286-181 446-444 446" id="w"/><path d="M481 0L54-1118h197c107 314 236 620 325 951 87-331 217-637 324-951h197L670 0H481" id="x"/><g id="d"><use transform="matrix(0.052083333333333336,0,0,0.052083333333333336,0,0)" xlink:href="#w"/><use transform="matrix(0.052083333333333336,0,0,0.052083333333333336,60.88541666666667,0)" xlink:href="#t"/><use transform="matrix(0.052083333333333336,0,0,0.052083333333333336,119.21875,0)" xlink:href="#x"/><use transform="matrix(0.052083333333333336,0,0,0.052083333333333336,178.64583333333334,0)" xlink:href="#t"/></g><path d="M600 0L52-1490h200c166 485 304 806 458 1336 156-533 285-846 449-1336h202L819 0H600" id="y"/><path d="M158 0v-1118h174v172h12c41-113 157-188 290-188 26 0 70 2 91 3v181c-11-2-60-10-108-10-161 0-279 109-279 260V0H158" id="z"/><path d="M598-1118v154H368v674c0 100 37 144 132 144 23 0 62-6 92-12L629-6c-37 13-88 20-134 20-193 0-307-107-307-290v-688H20v-154h168v-266h180v266h230" id="A"/><path d="M338-1490V0H158v-1490h180" id="B"/><g id="e"><use transform="matrix(0.052083333333333336,0,0,0.052083333333333336,0,0)" xlink:href="#y"/><use transform="matrix(0.052083333333333336,0,0,0.052083333333333336,73.59375,0)" xlink:href="#j"/><use transform="matrix(0.052083333333333336,0,0,0.052083333333333336,99.42708333333334,0)" xlink:href="#z"/><use transform="matrix(0.052083333333333336,0,0,0.052083333333333336,141.25,0)" xlink:href="#A"/><use transform="matrix(0.052083333333333336,0,0,0.052083333333333336,176.14583333333334,0)" xlink:href="#q"/><use transform="matrix(0.052083333333333336,0,0,0.052083333333333336,239.21875,0)" xlink:href="#t"/><use transform="matrix(0.052083333333333336,0,0,0.052083333333333336,299.1145833333333,0)" xlink:href="#B"/></g><path d="M180 0v-1490h270l367 940c28 72 75 218 110 339 35-117 81-264 110-339l362-940h271V0h-187c2-448-5-837 7-1287-157 497-311 829-483 1287H842C666-458 514-784 354-1284c12 438 5 843 7 1284H180" id="C"/><path d="M338-670V0H158v-1490h180v566c73-149 190-208 336-208 226 0 379 139 379 422V0H872v-695c0-172-96-275-252-275-161 0-282 109-282 300" id="D"/><path d="M628 24c-324 0-524-230-524-574 0-343 198-582 503-582 237 0 487 146 487 559v75H286c9 234 145 362 343 362 132 0 231-58 273-172l174 48C1024-91 857 24 628 24zM287-650h624c-17-190-120-322-304-322-192 0-309 151-320 322" id="E"/><g id="f"><use transform="matrix(0.052083333333333336,0,0,0.052083333333333336,0,0)" xlink:href="#C"/><use transform="matrix(0.052083333333333336,0,0,0.052083333333333336,96.35416666666667,0)" xlink:href="#t"/><use transform="matrix(0.052083333333333336,0,0,0.052083333333333336,156.25,0)" xlink:href="#u"/><use transform="matrix(0.052083333333333336,0,0,0.052083333333333336,217.1875,0)" xlink:href="#D"/><use transform="matrix(0.052083333333333336,0,0,0.052083333333333336,280.2604166666667,0)" xlink:href="#j"/><use transform="matrix(0.052083333333333336,0,0,0.052083333333333336,306.09375,0)" xlink:href="#k"/><use transform="matrix(0.052083333333333336,0,0,0.052083333333333336,369.1145833333333,0)" xlink:href="#E"/></g><path d="M218-607c0-325 108-727 258-974h175c-155 315-250 682-250 974 0 265 78 531 250 886H476C306-10 218-315 218-607" id="F"/><path d="M96 279C273-86 346-350 346-607c0-292-95-659-250-974h175c150 246 258 650 258 974 0 297-91 602-258 886H96" id="G"/><g id="g"><use transform="matrix(0.052083333333333336,0,0,0.052083333333333336,0,0)" xlink:href="#F"/><use transform="matrix(0.052083333333333336,0,0,0.052083333333333336,38.90625,0)" xlink:href="#w"/><use transform="matrix(0.052083333333333336,0,0,0.052083333333333336,99.79166666666667,0)" xlink:href="#y"/><use transform="matrix(0.052083333333333336,0,0,0.052083333333333336,173.38541666666669,0)" xlink:href="#C"/><use transform="matrix(0.052083333333333336,0,0,0.052083333333333336,269.73958333333337,0)" xlink:href="#G"/></g><path d="M52 0l541-1490h220L1361 0h-200l-149-416H398L254 0H52zm404-582h497c-103-290-145-390-251-756-108 377-145 460-246 756" id="H"/><path d="M158 418v-1536h174v179h20c37-59 106-193 324-193 279 0 474 222 474 576 0 356-194 580-473 580-213 0-288-135-325-197h-14v591H158zm492-555c209 0 317-186 317-421 0-232-105-413-317-413-206 0-314 166-314 413 0 249 111 421 314 421" id="I"/><g id="h"><use transform="matrix(0.052083333333333336,0,0,0.052083333333333336,0,0)" xlink:href="#H"/><use transform="matrix(0.052083333333333336,0,0,0.052083333333333336,73.59375,0)" xlink:href="#I"/><use transform="matrix(0.052083333333333336,0,0,0.052083333333333336,138.90625,0)" xlink:href="#I"/></g></defs></g></svg>